# xmcd
#
# Track frame offsets:
#	150
#	97657
#	130699
#	154184
#	191567
#	220766
#	246476
#
# Disc length: 3823 seconds
#
# Revision: 0
# Processed by: cddbd v1.5.2PL0 Copyright (c) Steve Scherf et al.
# Submitted via: audiograbber 1.83.01
#
DISCID=570eed07
DTITLE=Grateful Dead - 73-12-12 The Omni, Atlanta GA
DYEAR=1900
DGENRE=
TTITLE0=Playing In The Band
TTITLE1=Mississippi Half-Step
TTITLE2=Me and Bobby McGee
TTITLE3=China Cat Sunflower
TTITLE4=I Know You Rider
TTITLE5=Greatest Story Ever Told
TTITLE6=Row Jimmy
EXTD=
EXTT0=
EXTT1=
EXTT2=
EXTT3=
EXTT4=
EXTT5=
EXTT6=
PLAYORDER=
